<?xml version="1.0" encoding="UTF-8" standalone="no"?>
<!-- Created with Inkscape (http://www.inkscape.org/) -->

<svg
   width="64"
   height="64"
   viewBox="0 0 16.933333 16.933333"
   version="1.1"
   id="svg5"
   inkscape:version="1.2.2 (732a01da63, 2022-12-09)"
   sodipodi:docname="cs.svg"
   xmlns:inkscape="http://www.inkscape.org/namespaces/inkscape"
   xmlns:sodipodi="http://sodipodi.sourceforge.net/DTD/sodipodi-0.dtd"
   xmlns:xlink="http://www.w3.org/1999/xlink"
   xmlns="http://www.w3.org/2000/svg"
   xmlns:svg="http://www.w3.org/2000/svg">
  <sodipodi:namedview
     id="namedview7"
     pagecolor="#ffffff"
     bordercolor="#000000"
     borderopacity="0.25"
     inkscape:showpageshadow="2"
     inkscape:pageopacity="0.0"
     inkscape:pagecheckerboard="0"
     inkscape:deskcolor="#d1d1d1"
     inkscape:document-units="mm"
     showgrid="true"
     inkscape:zoom="14.638496"
     inkscape:cx="60.935222"
     inkscape:cy="45.598947"
     inkscape:window-width="3840"
     inkscape:window-height="2081"
     inkscape:window-x="2391"
     inkscape:window-y="-9"
     inkscape:window-maximized="1"
     inkscape:current-layer="layer1">
    <inkscape:grid
       type="xygrid"
       id="grid234"
       empspacing="4" />
  </sodipodi:namedview>
  <defs
     id="defs2">
    <linearGradient
       inkscape:collect="always"
       id="linearGradient5819">
      <stop
         style="stop-color:#ffffff;stop-opacity:1;"
         offset="0"
         id="stop5815" />
      <stop
         style="stop-color:#d4d4d4;stop-opacity:1;"
         offset="1"
         id="stop5817" />
    </linearGradient>
    <linearGradient
       inkscape:collect="always"
       id="linearGradient5655">
      <stop
         style="stop-color:#0047ab;stop-opacity:1;"
         offset="0"
         id="stop5651" />
      <stop
         style="stop-color:#0064c8;stop-opacity:1;"
         offset="1"
         id="stop5653" />
    </linearGradient>
    <linearGradient
       inkscape:collect="always"
       xlink:href="#linearGradient5655"
       id="linearGradient5657"
       x1="5.2916665"
       y1="1.0583333"
       x2="5.2916665"
       y2="15.875"
       gradientUnits="userSpaceOnUse" />
    <linearGradient
       inkscape:collect="always"
       xlink:href="#linearGradient5819"
       id="linearGradient5821"
       x1="43.391666"
       y1="12.964583"
       x2="43.391666"
       y2="23.8125"
       gradientUnits="userSpaceOnUse"
       gradientTransform="matrix(1.0746426,0,0,1.0881515,-37.745143,-11.464972)" />
  </defs>
  <g
     inkscape:label="Ebene 1"
     inkscape:groupmode="layer"
     id="layer1">
    <rect
       style="fill:url(#linearGradient5657);fill-opacity:1;stroke:none;stroke-width:0.264583;stroke-linejoin:bevel"
       id="rect288"
       width="14.816667"
       height="14.816667"
       x="1.0583333"
       y="1.0583333"
       ry="1.0583334" />
    <text
       xml:space="preserve"
       style="font-style:normal;font-variant:normal;font-weight:normal;font-stretch:normal;font-size:18.6315px;font-family:'MesloLGS Nerd Font';-inkscape-font-specification:'MesloLGS Nerd Font';fill:#000000;fill-opacity:1;stroke:none;stroke-width:1.07491;stroke-linejoin:bevel"
       x="26.176313"
       y="13.083608"
       id="text3021"><tspan
         sodipodi:role="line"
         id="tspan3019"
         style="font-style:normal;font-variant:normal;font-weight:normal;font-stretch:normal;font-family:'MesloLGS Nerd Font';-inkscape-font-specification:'MesloLGS Nerd Font';fill:#000000;stroke-width:1.07491"
         x="26.176313"
         y="13.083608">c</tspan></text>
    <text
       xml:space="preserve"
       style="font-style:normal;font-variant:normal;font-weight:normal;font-stretch:normal;font-size:9.26877px;font-family:'MesloLGL NF';-inkscape-font-specification:'MesloLGL NF';fill:#000000;fill-opacity:1;stroke:none;stroke-width:0.534737;stroke-linejoin:bevel"
       x="30.220291"
       y="11.245836"
       id="text5775"><tspan
         sodipodi:role="line"
         id="tspan5773"
         style="font-style:normal;font-variant:normal;font-weight:normal;font-stretch:normal;font-family:'MesloLGL NF';-inkscape-font-specification:'MesloLGL NF';stroke-width:0.534737"
         x="30.220291"
         y="11.245836">S</tspan></text>
    <path
       id="text3021-2"
       style="font-style:normal;font-variant:normal;font-weight:normal;font-stretch:normal;font-size:18.6315px;font-family:'MesloLGS Nerd Font';-inkscape-font-specification:'MesloLGS Nerd Font';fill:url(#linearGradient5821);fill-opacity:1;stroke:none;stroke-width:1.16239;stroke-linejoin:bevel"
       d="m 9.6395387,2.6458333 c -1.6945867,0 -3.0208965,0.514592 -3.9789899,1.544125 -0.9515745,1.029533 -1.4272155,2.454946 -1.4272155,4.276426 0,1.8214807 0.475641,3.2474557 1.4272155,4.2769887 0.9580934,1.029533 2.2844032,1.544126 3.9789899,1.544126 0.5344453,0 1.0560083,-0.07243 1.5643843,-0.217618 C 11.718816,13.93129 12.217695,13.71993 12.7,13.436149 v -1.891075 c -0.423646,0.409173 -0.883561,0.712969 -1.378901,0.910954 -0.495341,0.191387 -1.055868,0.287345 -1.6815603,0.287345 -1.1210338,0 -1.98743,-0.36974 -2.600088,-1.10889 -0.6061404,-0.745752 -0.909642,-1.8019877 -0.909642,-3.1680987 0,-1.372709 0.3035016,-2.428384 0.909642,-3.167536 0.6061403,-0.739151 1.4725364,-1.10889 2.600088,-1.10889 0.6061403,0 1.1474613,0.09596 1.6232493,0.287344 0.482305,0.191387 0.961425,0.501664 1.437212,0.930636 V 3.4971823 C 12.191625,3.2068013 11.686343,2.9924813 11.184485,2.8538913 10.682627,2.7153003 10.167467,2.6458333 9.6395387,2.6458333 Z m 0.1021769,1.869145 c -0.7230517,0 -1.3032587,0.198796 -1.7409811,0.596057 -0.434479,0.393977 -0.6519652,0.918985 -0.6519652,1.575614 0,0.525302 0.1522575,0.944319 0.4570422,1.256218 0.3047837,0.311898 0.79445,0.544654 1.4688655,0.698961 l 0.5253499,0.123147 c 0.4701451,0.105061 0.7993301,0.254462 0.9873881,0.448168 0.191302,0.193706 0.28711,0.47464 0.28711,0.8423507 0,0.403827 -0.138124,0.718719 -0.413726,0.945256 -0.275603,0.223254 -0.6612379,0.335142 -1.157323,0.335142 -0.3372078,0 -0.6728594,-0.05594 -1.0068251,-0.16757 C 8.1659275,11.056695 7.8143851,10.881099 7.4415099,10.64143 v 1.058844 c 0.3469355,0.14774 0.6920107,0.257852 1.035704,0.33008 0.3436921,0.07552 0.6858121,0.113026 1.0262621,0.113026 0.817081,0 1.439604,-0.183922 1.867599,-0.551634 0.427995,-0.367713 0.641968,-0.901047 0.641968,-1.6003557 0,-0.594248 -0.155768,-1.063875 -0.467037,-1.408605 -0.311269,-0.344731 -0.807402,-0.597693 -1.488303,-0.758567 L 9.5423501,7.7061313 C 9.0592349,7.5912213 8.7282944,7.4483693 8.5499629,7.2776453 8.3748746,7.1069223 8.287288,6.8592923 8.287288,6.5342603 c 0,-0.370995 0.1346129,-0.665026 0.4037303,-0.881713 0.2691185,-0.219971 0.6359068,-0.330081 1.0995678,-0.330081 0.3047839,0 0.6063449,0.0494 0.9046439,0.147889 0.301541,0.09849 0.601346,0.244903 0.899646,0.438608 v -1.009922 c -0.340451,-0.128043 -0.664925,-0.223278 -0.972951,-0.285658 -0.308027,-0.06566 -0.601364,-0.0984 -0.8802094,-0.0984 z" />
  </g>
</svg>
